<svg class="animated" id="freepik_stories-bitcoin-p2p" xmlns="http://www.w3.org/2000/svg" viewBox="0 0 500 500" version="1.1" xmlns:xlink="http://www.w3.org/1999/xlink" xmlns:svgjs="http://svgjs.com/svgjs"><style>svg#freepik_stories-bitcoin-p2p:not(.animated) .animable {opacity: 0;}svg#freepik_stories-bitcoin-p2p.animated #freepik--background-complete--inject-2 {animation: 1s 1 forwards cubic-bezier(.36,-0.01,.5,1.38) slideLeft;animation-delay: 0s;}svg#freepik_stories-bitcoin-p2p.animated #freepik--Shadow--inject-2 {animation: 1s 1 forwards cubic-bezier(.36,-0.01,.5,1.38) lightSpeedRight;animation-delay: 0s;}svg#freepik_stories-bitcoin-p2p.animated #freepik--character-1--inject-2 {animation: 1s 1 forwards cubic-bezier(.36,-0.01,.5,1.38) slideLeft,3s Infinite  linear heartbeat;animation-delay: 0s,1s;}svg#freepik_stories-bitcoin-p2p.animated #freepik--character-2--inject-2 {animation: 1s 1 forwards cubic-bezier(.36,-0.01,.5,1.38) zoomOut,1.5s Infinite  linear floating;animation-delay: 0s,1s;}            @keyframes slideLeft {                0% {                    opacity: 0;                    transform: translateX(-30px);                }                100% {                    opacity: 1;                    transform: translateX(0);                }            }                    @keyframes lightSpeedRight {              from {                transform: translate3d(50%, 0, 0) skewX(-20deg);                opacity: 0;              }              60% {                transform: skewX(10deg);                opacity: 1;              }              80% {                transform: skewX(-2deg);              }              to {                opacity: 1;                transform: translate3d(0, 0, 0);              }            }                    @keyframes heartbeat {                0% {                    transform: scale(1);                }                10% {                    transform: scale(1.1);                }                30% {                    transform: scale(1);                }                40% {                    transform: scale(1);                }                50% {                    transform: scale(1.1);                }                60% {                    transform: scale(1);                }                100% {                    transform: scale(1);                }            }                    @keyframes zoomOut {                0% {                    opacity: 0;                    transform: scale(1.5);                }                100% {                    opacity: 1;                    transform: scale(1);                }            }                    @keyframes floating {                0% {                    opacity: 1;                    transform: translateY(0px);                }                50% {                    transform: translateY(-10px);                }                100% {                    opacity: 1;                    transform: translateY(0px);                }            }        .animator-hidden { display: none; }</style><g id="freepik--background-complete--inject-2" class="animable" style="transform-origin: 250px 226.87px;"><rect y="382.4" width="500" height="0.25" style="fill: rgb(235, 235, 235); transform-origin: 250px 382.525px;" id="el5g14rg6vk8s" class="animable"></rect><rect x="416.78" y="398.49" width="33.12" height="0.25" style="fill: rgb(235, 235, 235); transform-origin: 433.34px 398.615px;" id="eluune1z63d8" class="animable"></rect><rect x="316.95" y="395.11" width="57.98" height="0.25" style="fill: rgb(235, 235, 235); transform-origin: 345.94px 395.235px;" id="el030j7dawg5x6" class="animable"></rect><rect x="361.67" y="389.21" width="54.11" height="0.25" style="fill: rgb(235, 235, 235); transform-origin: 388.725px 389.335px;" id="el4b57xmjm006" class="animable"></rect><rect x="52.46" y="390.89" width="14.91" height="0.25" style="fill: rgb(235, 235, 235); transform-origin: 59.915px 391.015px;" id="elg451ox6spsd" class="animable"></rect><rect x="76.27" y="390.89" width="64.4" height="0.25" style="fill: rgb(235, 235, 235); transform-origin: 108.47px 391.015px;" id="eliajr7eboc6j" class="animable"></rect><rect x="182" y="395.11" width="43.15" height="0.25" style="fill: rgb(235, 235, 235); transform-origin: 203.575px 395.235px;" id="elehlz65w6vz7" class="animable"></rect><path d="M237,337.8H43.91a5.71,5.71,0,0,1-5.7-5.71V60.66A5.71,5.71,0,0,1,43.91,55H237a5.71,5.71,0,0,1,5.71,5.71V332.09A5.71,5.71,0,0,1,237,337.8ZM43.91,55.2a5.46,5.46,0,0,0-5.45,5.46V332.09a5.46,5.46,0,0,0,5.45,5.46H237a5.47,5.47,0,0,0,5.46-5.46V60.66A5.47,5.47,0,0,0,237,55.2Z" style="fill: rgb(235, 235, 235); transform-origin: 140.46px 196.4px;" id="elspsdy7hll1" class="animable"></path><path d="M453.31,337.8H260.21a5.72,5.72,0,0,1-5.71-5.71V60.66A5.72,5.72,0,0,1,260.21,55h193.1A5.71,5.71,0,0,1,459,60.66V332.09A5.71,5.71,0,0,1,453.31,337.8ZM260.21,55.2a5.47,5.47,0,0,0-5.46,5.46V332.09a5.47,5.47,0,0,0,5.46,5.46h193.1a5.47,5.47,0,0,0,5.46-5.46V60.66a5.47,5.47,0,0,0-5.46-5.46Z" style="fill: rgb(235, 235, 235); transform-origin: 356.75px 196.4px;" id="elprpu3d6rd3" class="animable"></path><rect x="64.76" y="83.9" width="155.74" height="144.13" style="fill: rgb(230, 230, 230); transform-origin: 142.63px 155.965px;" id="eliv0cxc6tpu" class="animable"></rect><rect x="66.51" y="83.9" width="157.73" height="144.13" style="fill: rgb(240, 240, 240); transform-origin: 145.375px 155.965px;" id="el4k3qosj7oyn" class="animable"></rect><g id="elkrz5dp2rkrl"><rect x="79.2" y="82.34" width="132.36" height="147.25" style="fill: rgb(250, 250, 250); transform-origin: 145.38px 155.965px; transform: rotate(90deg);" class="animable"></rect></g><polygon points="157.81 222.15 131.81 89.79 97.72 89.79 123.72 222.15 157.81 222.15" style="fill: rgb(255, 255, 255); transform-origin: 127.765px 155.97px;" id="elz0wlk5j2nb" class="animable"></polygon><polygon points="118.42 222.15 92.41 89.79 77.01 89.79 103.02 222.15 118.42 222.15" style="fill: rgb(255, 255, 255); transform-origin: 97.715px 155.97px;" id="el0tgjcjxfzylq" class="animable"></polygon><polygon points="200.45 222.15 174.44 89.79 168.79 89.79 194.79 222.15 200.45 222.15" style="fill: rgb(255, 255, 255); transform-origin: 184.62px 155.97px;" id="elmme3hoonxf" class="animable"></polygon><g id="el5dwojjvx9ra"><rect x="152.49" y="155.63" width="132.36" height="0.67" style="fill: rgb(230, 230, 230); transform-origin: 218.67px 155.965px; transform: rotate(90deg);" class="animable"></rect></g><g id="elqvgqeytogkj"><path d="M60.83,83.67v73.72H75.94s27.15-34.32,33.32-70.75a6,6,0,0,0-6-7.08H65A4.11,4.11,0,0,0,60.83,83.67Z" style="fill: rgb(230, 230, 230); opacity: 0.7; transform-origin: 85.0941px 118.475px;" class="animable"></path></g><g id="elcxhrdkgxrq9"><path d="M60.83,287.63V162H75.94s9.41,104,13,125.63Z" style="fill: rgb(230, 230, 230); opacity: 0.7; transform-origin: 74.885px 224.815px;" class="animable"></path></g><rect x="59.88" y="157.39" width="17.14" height="4.61" rx="1.51" style="fill: rgb(224, 224, 224); transform-origin: 68.45px 159.695px;" id="elifw7bbou4l" class="animable"></rect><g id="eljhv0sn4qt8h"><path d="M228.52,83.67v73.72H213.41s-27.15-34.32-33.32-70.75a6.05,6.05,0,0,1,6-7.08h38.36A4.11,4.11,0,0,1,228.52,83.67Z" style="fill: rgb(230, 230, 230); opacity: 0.7; transform-origin: 204.261px 118.475px;" class="animable"></path></g><g id="elrlzkwgquanj"><path d="M228.52,287.63V162H213.41s-9.41,104-13,125.63Z" style="fill: rgb(230, 230, 230); opacity: 0.7; transform-origin: 214.465px 224.815px;" class="animable"></path></g><g id="elup993ntbgvl"><rect x="212.34" y="157.39" width="17.14" height="4.61" rx="1.51" style="fill: rgb(224, 224, 224); transform-origin: 220.91px 159.695px; transform: rotate(180deg);" class="animable"></rect></g><rect x="296.55" y="103.67" width="86.81" height="100.65" style="fill: rgb(230, 230, 230); transform-origin: 339.955px 153.995px;" id="elbbd24508kh" class="animable"></rect><rect x="297.86" y="103.67" width="91.55" height="100.65" style="fill: rgb(240, 240, 240); transform-origin: 343.635px 153.995px;" id="el7fec7nwkwnv" class="animable"></rect><g id="eletcn0wvx34"><rect x="300.99" y="115.88" width="85.31" height="76.21" style="fill: rgb(255, 255, 255); transform-origin: 343.645px 153.985px; transform: rotate(90deg);" class="animable"></rect></g><path d="M362.19,173.27H342.4a18.06,18.06,0,0,1-18-18.05V135.44a.73.73,0,0,1,.73-.73h19.78a18.06,18.06,0,0,1,18.05,18v19.78A.73.73,0,0,1,362.19,173.27Zm-36.36-37.09v19A16.59,16.59,0,0,0,342.4,171.8h19.05v-19a16.6,16.6,0,0,0-16.58-16.58Z" style="fill: rgb(240, 240, 240); transform-origin: 343.681px 153.991px;" id="eln5b5o0wpvx" class="animable"></path><rect x="272.1" y="242.32" width="15.48" height="135.91" style="fill: rgb(240, 240, 240); transform-origin: 279.84px 310.275px;" id="el027v04c1ove7" class="animable"></rect><rect x="274.24" y="378.23" width="148.65" height="4.17" style="fill: rgb(240, 240, 240); transform-origin: 348.565px 380.315px;" id="eljt3ddpbjtyh" class="animable"></rect><g id="elyq51nsmhsag"><rect x="287.58" y="242.32" width="137.45" height="135.91" style="fill: rgb(245, 245, 245); transform-origin: 356.305px 310.275px; transform: rotate(180deg);" class="animable"></rect></g><path d="M413,325.17H299.6V295.39H413Zm-112.41-1H412V296.39H300.6Z" style="fill: rgb(240, 240, 240); transform-origin: 356.3px 310.28px;" id="elsgfb63i5rhs" class="animable"></path><path d="M413,362.21H299.6V332.43H413Zm-112.41-1H412V333.43H300.6Z" style="fill: rgb(240, 240, 240); transform-origin: 356.3px 347.32px;" id="elwjzbw12dek" class="animable"></path><path d="M368.93,307.57H343.69a3.61,3.61,0,0,1,0-7.22h25.24a3.61,3.61,0,0,1,0,7.22Zm-25.24-6.22a2.61,2.61,0,0,0,0,5.22h25.24a2.61,2.61,0,0,0,0-5.22Z" style="fill: rgb(240, 240, 240); transform-origin: 356.31px 303.96px;" id="el2kwm1wg31sk" class="animable"></path><path d="M413,288.13H299.6V258.35H413Zm-112.41-1H412V259.35H300.6Z" style="fill: rgb(240, 240, 240); transform-origin: 356.3px 273.24px;" id="eljk4py402dw" class="animable"></path><path d="M368.93,270.53H343.69a3.61,3.61,0,0,1,0-7.22h25.24a3.61,3.61,0,0,1,0,7.22Zm-25.24-6.22a2.61,2.61,0,0,0,0,5.22h25.24a2.61,2.61,0,0,0,0-5.22Z" style="fill: rgb(240, 240, 240); transform-origin: 356.31px 266.92px;" id="elfb4zludiiah" class="animable"></path><path d="M368.93,344.61H343.69a3.61,3.61,0,0,1,0-7.22h25.24a3.61,3.61,0,0,1,0,7.22Zm-25.24-6.22a2.61,2.61,0,0,0,0,5.22h25.24a2.61,2.61,0,0,0,0-5.22Z" style="fill: rgb(240, 240, 240); transform-origin: 356.31px 341px;" id="el8e6sw1zzkke" class="animable"></path><rect x="287.58" y="238.45" width="140.28" height="3.88" style="fill: rgb(240, 240, 240); transform-origin: 357.72px 240.39px;" id="elf6rh2d40mmq" class="animable"></rect><g id="el6ges7t17lxa"><rect x="269.07" y="238.45" width="18.51" height="3.88" style="fill: rgb(230, 230, 230); transform-origin: 278.325px 240.39px; transform: rotate(180deg);" class="animable"></rect></g></g><g id="freepik--Shadow--inject-2" class="animable animator-hidden" style="transform-origin: 250px 416.24px;"><ellipse id="freepik--path--inject-2" cx="250" cy="416.24" rx="193.89" ry="11.32" style="fill: rgb(245, 245, 245); transform-origin: 250px 416.24px;" class="animable"></ellipse></g><g id="freepik--character-1--inject-2" class="animable" style="transform-origin: 166.65px 277.074px;"><path d="M165.6,143.11c.19-2.21,9.71-10.36,19.65-4.67S188,161.33,198.81,163c-7,7-29.8,15.55-36.81,7.52S154.09,140,165.6,143.11Z" style="fill: rgb(38, 50, 56); transform-origin: 177.814px 155.112px;" id="el4lrkkwmyazw" class="animable"></path><path d="M205.64,198.57c.26,3.7.65,7.62,1.17,11.36a72.24,72.24,0,0,0,2.24,10.9c.12.43.27.84.41,1.24l.38,1.06a2.26,2.26,0,0,0,.34.64c.23.34,1.56.65,3.12.45a37.83,37.83,0,0,0,10.27-3.31l2.54,3.73a30.77,30.77,0,0,1-2.53,2c-.86.62-1.74,1.22-2.67,1.76a25.39,25.39,0,0,1-6.18,2.73,15.21,15.21,0,0,1-3.86.56,9.83,9.83,0,0,1-4.65-1.13,9.18,9.18,0,0,1-3.66-3.68l-.27-.53-.17-.38-.35-.78c-.24-.51-.47-1-.65-1.54a64.31,64.31,0,0,1-3.27-12.31A97.62,97.62,0,0,1,196.54,199Z" style="fill: rgb(255, 195, 189); transform-origin: 211.325px 215.13px;" id="el4jk0icg4cn5" class="animable"></path><path d="M200.75,188.63c8.11,6.2,7.78,17.9,7.78,17.9L194,210s-4.45-11.76-2.64-16.07C193.27,189.44,196.19,185.13,200.75,188.63Z" style="fill: rgb(222, 63, 107); transform-origin: 199.729px 198.675px;" id="elper1npqgf3" class="animable"></path><path d="M222.78,221.78l5.33-5.34,2.87,8.35s-4.5,2.43-8.81.13Z" style="fill: rgb(255, 195, 189); transform-origin: 226.575px 221.175px;" id="elch0zikddq5q" class="animable"></path><polygon points="235.49 215.62 236.47 222.21 230.98 224.78 228.11 216.44 235.49 215.62" style="fill: rgb(255, 195, 189); transform-origin: 232.29px 220.2px;" id="el6l3mbu6ftpx" class="animable"></polygon><polygon points="153.76 409.3 161.92 410.09 170.41 390.68 162.25 389.88 153.76 409.3" style="fill: rgb(255, 195, 189); transform-origin: 162.085px 399.985px;" id="eld2vy55xhtrg" class="animable"></polygon><polygon points="101.23 380.6 107.35 386.35 120.58 371.82 114.45 366.06 101.23 380.6" style="fill: rgb(255, 195, 189); transform-origin: 110.905px 376.205px;" id="el5q22o6hmf3a" class="animable"></polygon><path d="M110.18,383.59l-4.6-8.29a.67.67,0,0,0-.83-.31l-7.09,2.7A1.36,1.36,0,0,0,97,379.6c1.66,2.86,2.6,4.16,4.63,7.81,1.24,2.24,3.67,7.39,5.39,10.49s4.87,1.56,4.43.12c-2-6.48-1.59-10.08-1-12.94A2.18,2.18,0,0,0,110.18,383.59Z" style="fill: rgb(38, 50, 56); transform-origin: 104.161px 387.324px;" id="elpnhr8z423" class="animable"></path><path d="M163,407.57H153a.82.82,0,0,0-.79.61L150,416.11a1.24,1.24,0,0,0,1.22,1.58c3.53,0,5.2,0,9.61,0h13.46c3.66,0,4.43-3.7,2.91-4-6.79-1.5-10.7-3.57-12.8-5.55A2.08,2.08,0,0,0,163,407.57Z" style="fill: rgb(38, 50, 56); transform-origin: 163.944px 412.63px;" id="eld5og2fxa806" class="animable"></path><g id="el0zr2t2lfxygh"><polygon points="170.4 390.69 166.03 400.69 157.52 400.69 162.24 389.89 170.4 390.69" style="opacity: 0.2; transform-origin: 163.96px 395.29px;" class="animable"></polygon></g><g id="eluss1mv1fvnj"><polygon points="114.45 366.07 120.57 371.82 113.75 379.31 107.63 373.56 114.45 366.07" style="opacity: 0.2; transform-origin: 114.1px 372.69px;" class="animable"></polygon></g><path d="M198.3,187.42S202,189,189.67,237.7l-34.16-2.95c1.78-13.86,2.53-22.43-1.64-51.54a101.11,101.11,0,0,1,14.67-.66,110.23,110.23,0,0,1,15.51,1.34A146.13,146.13,0,0,1,198.3,187.42Z" style="fill: rgb(222, 63, 107); transform-origin: 176.345px 210.106px;" id="el2r7ssfsxq1v" class="animable"></path><path d="M174.65,199.82a.14.14,0,0,1-.09,0c-7.39-6.08-12-15.46-10.52-17.67a.14.14,0,0,1,.19-.05.15.15,0,0,1,.05.2c-1.34,2.07,3.24,11.28,10.3,17.16,1.78-5.37,4.81-7.52,4.84-7.54a.15.15,0,0,1,.17.24s-3.06,2.17-4.81,7.59a.14.14,0,0,1-.09.09Z" style="fill: rgb(255, 255, 255); transform-origin: 171.697px 190.961px;" id="elnneb6qyn8vs" class="animable"></path><path d="M186.47,200.15h0a.13.13,0,0,1-.1-.1c-1.55-5.58-4.64-7.8-4.67-7.82a.16.16,0,0,1,0-.2.15.15,0,0,1,.2,0s3.11,2.23,4.71,7.72c3.71-4.55,1.6-13.2.16-15.42a.15.15,0,0,1,.05-.2.14.14,0,0,1,.19,0c1.49,2.31,3.68,11.37-.36,16A.16.16,0,0,1,186.47,200.15Z" style="fill: rgb(255, 255, 255); transform-origin: 185.311px 192.131px;" id="elwpmw8ymtdao" class="animable"></path><path d="M171.59,165.22c.54,5.07.73,14.3-3.05,17.33a57.76,57.76,0,0,0,12.2,8.67c5.94-4.1,3.31-7.33,3.31-7.33-5.45-1.81-5-5.92-3.64-9.72Z" style="fill: rgb(255, 195, 189); transform-origin: 176.585px 178.22px;" id="elldkvhhw8u" class="animable"></path><g id="el0w6qjhyv44ag"><path d="M175.18,168.87l5.22,5.3a15.94,15.94,0,0,0-.71,2.71c-2.1-.49-5.14-2.67-5.18-4.92A9.26,9.26,0,0,1,175.18,168.87Z" style="opacity: 0.2; transform-origin: 177.455px 172.875px;" class="animable"></path></g><path d="M167.12,157.29c2.12,8.11,2.84,11.58,7.81,15,7.48,5.11,17,.74,17.33-7.84.31-7.72-3.2-19.68-11.88-21.37A11.43,11.43,0,0,0,167.12,157.29Z" style="fill: rgb(255, 195, 189); transform-origin: 179.499px 158.666px;" id="elsirix0grte" class="animable"></path><path d="M169.43,163.36c2.75,4,9.92-19.83.63-19.08S161.89,155.12,169.43,163.36Z" style="fill: rgb(38, 50, 56); transform-origin: 169.051px 154.038px;" id="elc852oqni2ep" class="animable"></path><path d="M170.66,145.64c5.37,2.73,21,6,18.86,1.65a13.65,13.65,0,0,0-12.06-7.21C172.36,140,165.92,143.24,170.66,145.64Z" style="fill: rgb(38, 50, 56); transform-origin: 179.363px 144.743px;" id="elndjukc4snmq" class="animable"></path><path d="M166.45,164.16a6.1,6.1,0,0,0,3.6,3c2.06.62,3.13-1.21,2.59-3.17-.48-1.77-2.13-4.22-4.21-4A2.75,2.75,0,0,0,166.45,164.16Z" style="fill: rgb(255, 195, 189); transform-origin: 169.41px 163.63px;" id="elaycpzh018dc" class="animable"></path><path d="M189.67,237.7s11.56,51.13,3.85,87.18c-5.17,24.14-23.81,72.91-23.81,72.91l-14.57-.37s14.11-51.18,17-71.31c5-34.43-7.5-90.57-7.5-90.57Z" style="fill: rgb(38, 50, 56); transform-origin: 175.656px 316.665px;" id="elvxmc1fe4csc" class="animable"></path><g id="eltsjovbpoudd"><path d="M176.34,248l-7.28,11.5a352.1,352.1,0,0,1,4.17,41.16C183.47,282.33,178.62,257.74,176.34,248Z" style="opacity: 0.2; transform-origin: 174.281px 274.33px;" class="animable"></path></g><polygon points="171.76 398.55 153.76 398.09 154.81 392.56 173.17 393.43 171.76 398.55" style="fill: rgb(222, 63, 107); transform-origin: 163.465px 395.555px;" id="el52pqhum33ne" class="animable"></polygon><path d="M182.2,237.16s-6.78,54.22-21.48,83.82c-11.87,23.92-43.55,57.95-43.55,57.95l-8.1-8.34s21.4-37,30.22-52.88c21.64-38.94,4-68.66,16.22-83Z" style="fill: rgb(38, 50, 56); transform-origin: 145.635px 306.82px;" id="elk88is0efu09" class="animable"></path><polygon points="117.99 380.05 107.54 369.86 111.01 365.14 122.09 376.21 117.99 380.05" style="fill: rgb(222, 63, 107); transform-origin: 114.815px 372.595px;" id="el9aj2z3cjjwb" class="animable"></polygon><path d="M155.17,232.7l-1.8,2.92c-.14.23.12.49.51.53l35.83,3.1c.31,0,.58-.11.61-.3l.57-3c0-.21-.21-.41-.54-.44l-34.6-3A.63.63,0,0,0,155.17,232.7Z" style="fill: rgb(222, 63, 107); transform-origin: 172.111px 235.874px;" id="eloqs3k0h0ulf" class="animable"></path><g id="el09jdiyjznb1h"><path d="M155.17,232.7l-1.8,2.92c-.14.23.12.49.51.53l35.83,3.1c.31,0,.58-.11.61-.3l.57-3c0-.21-.21-.41-.54-.44l-34.6-3A.63.63,0,0,0,155.17,232.7Z" style="opacity: 0.3; transform-origin: 172.111px 235.874px;" class="animable"></path></g><path d="M159.48,237l-.92-.08c-.19,0-.32-.13-.3-.24l.78-3.94c0-.11.19-.19.38-.18l.92.08c.19,0,.32.13.3.24l-.78,3.94C159.84,236.9,159.67,237,159.48,237Z" style="fill: rgb(38, 50, 56); transform-origin: 159.45px 234.78px;" id="elyguuo0hfesc" class="animable"></path><path d="M187.08,239.35l-.93-.08c-.18,0-.32-.12-.29-.24l.77-3.93c0-.12.2-.2.38-.18l.93.08c.18,0,.31.12.29.24l-.78,3.93C187.43,239.29,187.26,239.37,187.08,239.35Z" style="fill: rgb(38, 50, 56); transform-origin: 187.044px 237.135px;" id="el9jyvqcuyo3g" class="animable"></path><path d="M173.28,238.16l-.93-.08c-.18,0-.31-.12-.29-.24l.78-3.93c0-.12.19-.2.37-.18l.93.08c.19,0,.32.12.3.23l-.78,3.94A.35.35,0,0,1,173.28,238.16Z" style="fill: rgb(38, 50, 56); transform-origin: 173.25px 235.947px;" id="elp0rd9sx1q7h" class="animable"></path><path d="M180.85,157c.13.67.59,1.14,1,1.05s.69-.69.56-1.36-.59-1.14-1-1.06S180.71,156.34,180.85,157Z" style="fill: rgb(38, 50, 56); transform-origin: 181.628px 156.841px;" id="el0rv0bhnvq1ne" class="animable"></path><path d="M188.4,155.52c.13.67.59,1.15,1,1.06s.68-.7.55-1.37-.59-1.14-1-1.05S188.27,154.86,188.4,155.52Z" style="fill: rgb(38, 50, 56); transform-origin: 189.175px 155.37px;" id="el7qnn81aqynl" class="animable"></path><path d="M188.77,154.23l1.51-.77S189.7,154.87,188.77,154.23Z" style="fill: rgb(38, 50, 56); transform-origin: 189.525px 153.928px;" id="el2wbrxe7gihr" class="animable"></path><path d="M185.8,157.19A18.4,18.4,0,0,0,189,161a2.94,2.94,0,0,1-2.29.91Z" style="fill: rgb(237, 132, 126); transform-origin: 187.4px 159.552px;" id="elo13a8hl7hsk" class="animable"></path><path d="M183.64,165.09a5.54,5.54,0,0,1-3.81-1.45.17.17,0,0,1,0-.24.16.16,0,0,1,.23,0,5.46,5.46,0,0,0,4.75,1.23.17.17,0,0,1,.2.13.16.16,0,0,1-.13.19A6.25,6.25,0,0,1,183.64,165.09Z" style="fill: rgb(38, 50, 56); transform-origin: 182.397px 164.221px;" id="el3jevrvrjk6u" class="animable"></path><path d="M176.31,154.42a.34.34,0,0,1-.17,0,.33.33,0,0,1-.11-.46,3.86,3.86,0,0,1,3-1.94.33.33,0,0,1,.34.32.33.33,0,0,1-.32.34,3.23,3.23,0,0,0-2.47,1.63A.33.33,0,0,1,176.31,154.42Z" style="fill: rgb(38, 50, 56); transform-origin: 177.674px 153.225px;" id="elq03eivz10d8" class="animable"></path><path d="M190.5,151.74a.35.35,0,0,1-.17,0,3.21,3.21,0,0,0-2.94-.19.34.34,0,0,1-.45-.14.33.33,0,0,1,.14-.45,3.88,3.88,0,0,1,3.58.2.33.33,0,0,1,.13.45A.34.34,0,0,1,190.5,151.74Z" style="fill: rgb(38, 50, 56); transform-origin: 188.866px 151.183px;" id="elpui5d0kisuh" class="animable"></path><path d="M158.74,196c-1.34,2.22-2.76,4.5-4.09,6.78s-2.7,4.54-4,6.83-2.51,4.58-3.54,6.86c-.28.57-.5,1.13-.76,1.69s-.42,1.09-.63,1.64a4,4,0,0,0-.21.77c0,.13,0,.09-.06.07s.17.38,1,.73a13.2,13.2,0,0,0,3,.8,43.56,43.56,0,0,0,7.44.43,142.17,142.17,0,0,0,15.71-1.3l1,4.39a93,93,0,0,1-16.29,3.54,45.87,45.87,0,0,1-8.75.29,19.44,19.44,0,0,1-4.87-.95,11.45,11.45,0,0,1-2.72-1.35,8,8,0,0,1-3.6-6.58,11,11,0,0,1,.44-3.21c.22-.73.43-1.49.67-2.19s.48-1.4.75-2.08c1.06-2.7,2.23-5.24,3.5-7.72s2.58-4.91,3.94-7.3,2.78-4.72,4.35-7.06Z" style="fill: rgb(255, 195, 189); transform-origin: 155.485px 210.345px;" id="el682krc8fwxj" class="animable"></path><path d="M170.56,222.32l6.67-3.53.25,7.43s-4.66,1.68-7.42-.48Z" style="fill: rgb(255, 195, 189); transform-origin: 173.77px 222.816px;" id="elzazgid7uxi" class="animable"></path><polygon points="181.29 219.32 180.29 225.9 177.48 226.22 177.22 218.79 181.29 219.32" style="fill: rgb(255, 195, 189); transform-origin: 179.255px 222.505px;" id="elcyx0m51etkr" class="animable"></polygon><path d="M153.87,183.21C149.68,184,143.81,196,143.81,196l13,11.25s5.95-10.86,5.51-16.32C161.94,186.26,159.2,182.27,153.87,183.21Z" style="fill: rgb(222, 63, 107); transform-origin: 153.077px 195.161px;" id="el7jv5wp35sq6" class="animable"></path><path d="M111.8,388.05a1.26,1.26,0,0,1-.33-.05c-1-.34-1.66-2.2-2-3.27a.17.17,0,0,1,0-.18.19.19,0,0,1,.19,0c.3.16,3,1.59,3.06,2.64a.62.62,0,0,1-.28.59A1.18,1.18,0,0,1,111.8,388.05Zm-1.86-3c.47,1.49,1.07,2.47,1.64,2.66a.78.78,0,0,0,.75-.17.31.31,0,0,0,.15-.3C112.43,386.56,110.86,385.54,109.94,385Z" style="fill: rgb(222, 63, 107); transform-origin: 111.084px 386.287px;" id="el5b8t09frw9h" class="animable"></path><path d="M112.21,385.44a6.07,6.07,0,0,1-2.63-.61.18.18,0,0,1-.08-.15.17.17,0,0,1,.09-.14c.09-.05,2.21-1.22,3.35-.81a1,1,0,0,1,.62.59.67.67,0,0,1-.15.82A1.89,1.89,0,0,1,112.21,385.44Zm-2.18-.76c.91.39,2.67.63,3.17.21.08-.07.16-.19,0-.44a.71.71,0,0,0-.42-.41C112.05,383.77,110.64,384.39,110,384.68Z" style="fill: rgb(222, 63, 107); transform-origin: 111.569px 384.545px;" id="elzd74gb8x6ua" class="animable"></path><path d="M167.45,409.19a13.57,13.57,0,0,1-2.74-.34.18.18,0,0,1-.13-.15.18.18,0,0,1,.1-.17c.41-.19,4-1.87,5-1.25a.55.55,0,0,1,.24.52,1.21,1.21,0,0,1-.5.93A3.24,3.24,0,0,1,167.45,409.19Zm-2.17-.57c1.08.21,3.08.47,3.9-.15a.85.85,0,0,0,.36-.69c0-.14,0-.19-.09-.22C168.94,407.21,166.79,408,165.28,408.62Z" style="fill: rgb(222, 63, 107); transform-origin: 167.252px 408.173px;" id="el9z2zsu7tvfp" class="animable"></path><path d="M164.75,408.85a.15.15,0,0,1-.11,0,.14.14,0,0,1,0-.16c0-.15.86-3.74,2.83-3.51.49.06.63.3.65.5.13.91-2.16,2.75-3.26,3.2Zm2.49-3.39c-1.26,0-2,2.09-2.24,2.92,1.19-.62,2.82-2.11,2.74-2.7,0,0,0-.17-.36-.21Z" style="fill: rgb(222, 63, 107); transform-origin: 166.37px 407.025px;" id="elpzrvuopiyum" class="animable"></path><path d="M181.21,155.72l1.52-.78S182.15,156.36,181.21,155.72Z" style="fill: rgb(38, 50, 56); transform-origin: 181.97px 155.413px;" id="el18m408qbyzk" class="animable"></path></g><g id="freepik--character-2--inject-2" class="animable" style="transform-origin: 310.751px 274.627px;"><path d="M356.63,188.17c-.05.69-.11,1.18-.18,1.75s-.15,1.08-.24,1.61c-.18,1.07-.39,2.12-.62,3.17a61.15,61.15,0,0,1-1.73,6.19,53,53,0,0,1-5.64,11.67l-.92,1.36-.23.33-.14.2-.21.28a8.43,8.43,0,0,1-1,1,10.34,10.34,0,0,1-4.1,2.26,20.66,20.66,0,0,1-7.17.63,44.88,44.88,0,0,1-12.42-2.84l1.08-4.31a69.56,69.56,0,0,0,11.32.23,15.47,15.47,0,0,0,4.66-1,2.62,2.62,0,0,0,1-.73c-.11.15.56-1,1-1.72a53.32,53.32,0,0,0,4.21-10.15c.54-1.78,1-3.58,1.4-5.38.2-.91.38-1.82.54-2.72l.21-1.35.18-1.23Z" style="fill: rgb(181, 91, 82); transform-origin: 339.33px 203.059px;" id="el8wwaryh4muc" class="animable"></path><path d="M358.71,182.3c.22,5.6-1.95,15.7-1.95,15.7l-13.86-1.68s-.51-14.78,2.18-18.35C349.59,172,358.51,177,358.71,182.3Z" style="fill: rgb(38, 50, 56); transform-origin: 350.794px 186.629px;" id="el2lyi65f0phz" class="animable"></path><path d="M325,212.06l-8.3-2.95,1.73,6.22s3.88,2.27,6.1-.31Z" style="fill: rgb(181, 91, 82); transform-origin: 320.85px 212.681px;" id="elgufnpovfh57" class="animable"></path><polygon points="313.85 210.7 312.71 215.09 318.44 215.33 316.71 209.11 313.85 210.7" style="fill: rgb(181, 91, 82); transform-origin: 315.575px 212.22px;" id="el43ky7vk2e6s" class="animable"></polygon><path d="M274.87,239.76a43.57,43.57,0,1,0,0-87.13h-5.65v87.13Z" style="fill: rgb(222, 63, 107); transform-origin: 294.16px 196.195px;" id="el3iqgxya8iuq" class="animable"></path><circle cx="269.22" cy="196.19" r="43.57" style="fill: rgb(222, 63, 107); transform-origin: 269.22px 196.19px;" id="elpcxasazhth" class="animable"></circle><g id="elriy56mlqstf"><circle cx="269.22" cy="196.19" r="43.57" style="opacity: 0.4; transform-origin: 269.22px 196.19px;" class="animable"></circle></g><g id="elwomu8szw98"><circle cx="269.22" cy="196.2" r="38.63" style="fill: rgb(222, 63, 107); opacity: 0.2; transform-origin: 269.22px 196.2px; transform: rotate(-45deg);" class="animable"></circle></g><path d="M289.08,198.68a12.18,12.18,0,0,0-6.92-3.88,10.8,10.8,0,0,0,4.7-2.92,9.75,9.75,0,0,0,2.41-6.64,10.08,10.08,0,0,0-3.38-7.73q-3.37-3.13-9.68-3.13h-2.59v-7.32h-4.89v7.32h-6.06v-7.32h-4.89v7.32H247.15v8.84H251v25.95h-3.82V218h10.63v7.32h4.89V218h6.06v7.32h4.89V218h.62a58.23,58.23,0,0,0,6-.6A14.13,14.13,0,0,0,285.4,216a11.6,11.6,0,0,0,4.32-4.28,11.92,11.92,0,0,0,1.57-6.1A10.65,10.65,0,0,0,289.08,198.68Zm-24.51-15.46h5.95c2.05,0,3.48.36,4.3,1.07a3.73,3.73,0,0,1,1.24,3,4,4,0,0,1-1.24,3.14q-1.23,1.08-4.38,1.08h-5.87Zm11.79,24.18c-1,.82-2.59,1.23-4.91,1.23h-6.88V199.8h6.85q3.54,0,4.95,1.17a3.85,3.85,0,0,1,1.42,3.11A4.17,4.17,0,0,1,276.36,207.4Z" style="fill: rgb(255, 255, 255); transform-origin: 269.224px 196.19px;" id="els8if1hjohm" class="animable"></path><path d="M317.18,153.58c0,.65-.37,1.18-.79,1.19s-.77-.52-.76-1.16.36-1.18.79-1.19S317.19,152.94,317.18,153.58Z" style="fill: rgb(38, 50, 56); transform-origin: 316.405px 153.595px;" id="elzbzn9xmm5qh" class="animable"></path><path d="M316.61,152.46,315,152S315.83,153.23,316.61,152.46Z" style="fill: rgb(38, 50, 56); transform-origin: 315.805px 152.357px;" id="el7jlqm685n5g" class="animable"></path><path d="M316.62,154.22a17.85,17.85,0,0,1-2.39,4.17,2.82,2.82,0,0,0,2.32.4Z" style="fill: rgb(160, 39, 36); transform-origin: 315.425px 156.552px;" id="elctbsupgzj5g" class="animable"></path><path d="M316.36,149.28a.37.37,0,0,0,.18,0,3.16,3.16,0,0,1,2.8.33.38.38,0,1,0,.46-.61,4,4,0,0,0-3.5-.44.37.37,0,0,0-.24.48A.38.38,0,0,0,316.36,149.28Z" style="fill: rgb(38, 50, 56); transform-origin: 317.995px 149.015px;" id="el6vdtvrb086w" class="animable"></path><path d="M336.35,160.49c-.43,4.87,1.2,12.84,4.88,15.55,0,0-2.77,5.12-11.64,6.31-9.76,1.31-5.18-4.18-5.18-4.18,5.19-2,4.64-5.87,3.32-9.43Z" style="fill: rgb(181, 91, 82); transform-origin: 332.283px 171.521px;" id="eld4mw3vxqem8" class="animable"></path><path d="M318.62,188.06a142.53,142.53,0,0,1-4,15A124.74,124.74,0,0,1,309,217.6l-.41.9c-.17.35-.39.76-.59,1.13a19.77,19.77,0,0,1-1.3,2,31.27,31.27,0,0,1-2.83,3.23,61.34,61.34,0,0,1-6.06,5.25,99.28,99.28,0,0,1-13.07,8.38l-2.45-3.72c3.79-3.16,7.58-6.46,11.08-9.84a65.73,65.73,0,0,0,4.9-5.19,25.33,25.33,0,0,0,1.94-2.64,13.29,13.29,0,0,0,.69-1.24l.24-.57.33-.85c.88-2.26,1.66-4.58,2.45-6.9s1.48-4.68,2.17-7c1.35-4.72,2.62-9.57,3.73-14.26Z" style="fill: rgb(181, 91, 82); transform-origin: 300.455px 212.385px;" id="elikscyvavvp" class="animable"></path><path d="M285.19,238.14l-4.6,3-2.28-3.91s4.52-5.4,7.25-1.56Z" style="fill: rgb(181, 91, 82); transform-origin: 281.935px 237.716px;" id="el68yyu6re8tg" class="animable"></path><polygon points="284 234.11 281.4 233.72 278.48 234.34 277.73 235.19 279.63 235.47 280.13 236.22 280.77 236.63 284 234.11" style="fill: rgb(181, 91, 82); transform-origin: 280.865px 235.175px;" id="elxnsid6ruljc" class="animable"></polygon><polygon points="276.02 241.53 273.49 239.49 278.31 237.25 280.59 241.16 276.02 241.53" style="fill: rgb(181, 91, 82); transform-origin: 277.04px 239.39px;" id="elrpcn27faui" class="animable"></polygon><polygon points="350.76 407.41 342.69 408.01 340.29 389.48 348.36 388.88 350.76 407.41" style="fill: rgb(181, 91, 82); transform-origin: 345.525px 398.445px;" id="el6jgz76c9zjj" class="animable"></polygon><polygon points="402.43 383.87 395.44 388.12 383.82 373.6 390.81 369.35 402.43 383.87" style="fill: rgb(181, 91, 82); transform-origin: 393.125px 378.735px;" id="elmjxxp5thpj" class="animable"></polygon><path d="M393.35,386.56l6.63-6.38a.64.64,0,0,1,.85-.06l5.65,4.36a1.29,1.29,0,0,1,0,1.93c-2.35,2.19-3.59,3.13-6.51,5.94-1.79,1.73-4.24,4.43-6.72,6.82s-4.89.13-4.07-1.08c3.7-5.42,3.14-7.45,3.48-10.22A2.16,2.16,0,0,1,393.35,386.56Z" style="fill: rgb(38, 50, 56); transform-origin: 397.965px 390.105px;" id="el44hnkg6nm0n" class="animable"></path><path d="M342.19,406.86h9.07a.65.65,0,0,1,.65.55l1.22,7.17a1.26,1.26,0,0,1-1.25,1.44c-3.17,0-4.7-.24-8.69-.24-2.45,0-7.52.25-10.91.25s-3.65-3.35-2.25-3.65c6.29-1.36,8.74-3.24,10.82-5A2.07,2.07,0,0,1,342.19,406.86Z" style="fill: rgb(38, 50, 56); transform-origin: 341.187px 411.445px;" id="ely10732iylbs" class="animable"></path><g id="eldqecl4ammus"><polygon points="340.3 389.48 341.63 399.78 349.6 398.44 348.37 388.89 340.3 389.48" style="opacity: 0.2; transform-origin: 344.95px 394.335px;" class="animable"></polygon></g><g id="elo0s1x1vaxt"><polygon points="390.81 369.35 383.82 373.61 388.63 379.61 395.77 375.54 390.81 369.35" style="opacity: 0.2; transform-origin: 389.795px 374.48px;" class="animable"></polygon></g><path d="M354.83,224.66l-32.68,4.39c-12.66-45.84-8.92-47.08-8.92-47.08a65.84,65.84,0,0,1,7.53-3l.45-.14c2.11-.63,2.55-.72,5.36-1.36,4.83-.85,9.31-1.51,14.84-2l1-.08c1-.07,2-.12,3-.15.65,0,1.29,0,1.9-.05h3.19a4.52,4.52,0,0,1,4.39,5C352.11,204.4,353,212.32,354.83,224.66Z" style="fill: rgb(38, 50, 56); transform-origin: 333.815px 202.12px;" id="el246opsdo5gj" class="animable"></path><g id="elj0g9pkba8ws"><path d="M319,196a27.29,27.29,0,0,1-1.76,14c-2.18-8.94-3.35-15-3.94-19.2C315.76,190.69,318.36,191.65,319,196Z" style="opacity: 0.2; transform-origin: 316.277px 200.396px;" class="animable"></path></g><path d="M313.51,181.84c-5.59,3.2-9.48,10.83-10.65,15.26L314.77,208s7.7-14.82,5.69-18.83C318.36,185,315.63,180.63,313.51,181.84Z" style="fill: rgb(38, 50, 56); transform-origin: 311.827px 194.818px;" id="el8cn1rbnlsak" class="animable"></path><path d="M339.11,151.5c-.61,8-.69,11.34-4.81,15.48-6.19,6.23-15.93,4-17.74-3.89-1.62-7.12-.37-19,7.55-22.22A10.68,10.68,0,0,1,339.11,151.5Z" style="fill: rgb(181, 91, 82); transform-origin: 327.544px 155.258px;" id="el28bdy8xz27" class="animable"></path><path d="M322.62,154.71c.82-2.83-5.54-6.05-6.22-10.39-.88-5.63,3.48-10.18,7.55-7.53,1.65-3.77,12.85-5.36,19-.69,6.92,5.24-1.56,10.78,5.34,15.42,5.5,3.7,6.25,6,2.85,10.43-2.58,3.37,4.09,2.65,2.4,8.35s-36.19,7.79-31.61-5C326,154,321,160.49,322.62,154.71Z" style="fill: rgb(38, 50, 56); transform-origin: 335.052px 154px;" id="elltadey23do" class="animable"></path><path d="M324.56,154.08a7.2,7.2,0,0,1-1.45,4.1c-1.24,1.68-2.69,1.23-3-.32-.32-1.39-.05-3.94,1.52-5.1S324.55,152.42,324.56,154.08Z" style="fill: rgb(181, 91, 82); transform-origin: 322.276px 155.733px;" id="ele2p3n3xau1h" class="animable"></path><path d="M350.79,162.25a.14.14,0,0,1-.07-.26c2.17-1.25,3.33-3,3.28-4.82-.06-2.34-2-4.7-5.17-6.31-3.78-1.92-3.49-4.52-3.2-7s.58-5.14-3.11-7.28a.16.16,0,0,1-.06-.2.15.15,0,0,1,.2-.05c3.86,2.24,3.55,4.94,3.25,7.56s-.56,4.93,3,6.76c3.27,1.65,5.26,4.1,5.33,6.55,0,2-1.16,3.78-3.42,5.07A.12.12,0,0,1,350.79,162.25Z" style="fill: rgb(38, 50, 56); transform-origin: 348.343px 149.29px;" id="elqqy6f67bh6b" class="animable"></path><path d="M330.78,227.89s12.69,53.62,18.62,84.43c6.25,32.5,36.27,66.36,36.27,66.36L395.86,373s-18.89-30.9-25-61.25c-12.44-61.6-4-74-16-87.08Z" style="fill: rgb(222, 63, 107); transform-origin: 363.32px 301.675px;" id="elbj1z7g3gcg" class="animable"></path><polygon points="384.66 379.63 397.38 372.54 395.52 368.78 381.25 375.35 384.66 379.63" style="fill: rgb(38, 50, 56); transform-origin: 389.315px 374.205px;" id="elf5qumvfrcq" class="animable"></polygon><g id="eljg136wr7y4"><path d="M337.52,239.54c9.87,8.57,8.8,39,7.77,52.66-4.14-19.48-9.12-41.16-12-53.71C334.29,237.71,335.71,238,337.52,239.54Z" style="opacity: 0.2; transform-origin: 339.611px 265.136px;" class="animable"></path></g><path d="M390.57,390.26a.92.92,0,0,0,.29,0c1,0,2.19-1.56,2.79-2.48a.2.2,0,0,0,0-.21.18.18,0,0,0-.2-.08c-.32.06-3.21.67-3.59,1.63a.65.65,0,0,0,.09.64A1.19,1.19,0,0,0,390.57,390.26Zm2.49-2.27c-.84,1.2-1.65,1.91-2.21,1.92a.68.68,0,0,1-.59-.34.29.29,0,0,1-.05-.28C390.42,388.78,391.91,388.27,393.06,388Z" style="fill: rgb(222, 63, 107); transform-origin: 391.747px 388.878px;" id="el766d5duspdd" class="animable"></path><path d="M322.64,229.07S316.93,292.74,320,317c3.24,25.26,19.73,80.21,19.73,80.21l11.63-1.5s-9.45-54.46-11.13-79.46c-1.83-27.27,6.3-90.41,6.3-90.41Z" style="fill: rgb(222, 63, 107); transform-origin: 335.227px 311.525px;" id="elu6d6ghw3gu" class="animable"></path><polygon points="337.29 397.9 353.88 395.76 353.62 390.86 335.63 392.6 337.29 397.9" style="fill: rgb(38, 50, 56); transform-origin: 344.755px 394.38px;" id="elij7dcplvsos" class="animable"></polygon><path d="M391,387.76a6,6,0,0,0,2.54.13.2.2,0,0,0,.14-.14.2.2,0,0,0-.05-.18c-.07-.07-1.65-1.7-2.82-1.65a1,1,0,0,0-.78.39.66.66,0,0,0-.1.83A1.87,1.87,0,0,0,391,387.76Zm2.09-.18c-1,.11-2.54-.18-2.84-.64-.05-.08-.09-.19.07-.39a.66.66,0,0,1,.51-.25A4.27,4.27,0,0,1,393.09,387.58Z" style="fill: rgb(222, 63, 107); transform-origin: 391.756px 386.944px;" id="el2hu8z4qhnli" class="animable"></path><path d="M339.19,408.27a13.25,13.25,0,0,0,2.53-.29.19.19,0,0,0,.15-.16.19.19,0,0,0-.1-.2c-.37-.19-3.64-1.84-4.61-1.28a.59.59,0,0,0-.31.5,1.08,1.08,0,0,0,.37.93A3.1,3.1,0,0,0,339.19,408.27Zm1.89-.56c-1.78.29-3.11.22-3.61-.22a.76.76,0,0,1-.24-.62.23.23,0,0,1,.12-.2C337.88,406.37,339.74,407.07,341.08,407.71Z" style="fill: rgb(222, 63, 107); transform-origin: 339.358px 407.253px;" id="elfcfuptnbixt" class="animable"></path><path d="M341.68,408a.27.27,0,0,0,.12,0,.2.2,0,0,0,.07-.18c0-.14-.38-3.44-2.19-3.44h-.16c-.52.05-.67.31-.7.53-.15.91,1.8,2.66,2.79,3.1Zm-2-3.27c1.17,0,1.63,1.92,1.77,2.74-1-.6-2.33-2-2.25-2.52,0-.05,0-.18.37-.21Z" style="fill: rgb(222, 63, 107); transform-origin: 340.342px 406.195px;" id="elu3mvppnp42b" class="animable"></path><path d="M355.11,222.69l1.78,2.71c.14.21-.1.47-.48.52l-34.27,4.6c-.29,0-.55-.07-.59-.25l-.6-2.86c0-.2.19-.41.52-.45l33.08-4.44A.6.6,0,0,1,355.11,222.69Z" style="fill: rgb(222, 63, 107); transform-origin: 338.94px 226.513px;" id="elhwmb7n7nh1l" class="animable"></path><g id="el8blfuawuyo7"><path d="M355.11,222.69l1.78,2.71c.14.21-.1.47-.48.52l-34.27,4.6c-.29,0-.55-.07-.59-.25l-.6-2.86c0-.2.19-.41.52-.45l33.08-4.44A.6.6,0,0,1,355.11,222.69Z" style="fill: rgb(255, 255, 255); opacity: 0.5; transform-origin: 338.94px 226.513px;" class="animable"></path></g><path d="M351.06,227l.89-.12c.17,0,.3-.13.27-.24l-.81-3.72c0-.1-.19-.17-.37-.15l-.88.12c-.18,0-.31.13-.28.24l.81,3.72C350.72,226.91,350.88,227,351.06,227Z" style="fill: rgb(222, 63, 107); transform-origin: 351.05px 224.883px;" id="eljndsd3wk4ym" class="animable"></path><path d="M328.68,230l.88-.12c.18,0,.3-.13.28-.24l-.82-3.72c0-.11-.18-.18-.36-.15l-.89.11c-.17,0-.3.14-.27.25l.81,3.71C328.34,230,328.5,230,328.68,230Z" style="fill: rgb(222, 63, 107); transform-origin: 328.669px 227.882px;" id="el9gi443aoep" class="animable"></path></g><defs>     <filter id="active" height="200%">         <feMorphology in="SourceAlpha" result="DILATED" operator="dilate" radius="2"></feMorphology>                <feFlood flood-color="#32DFEC" flood-opacity="1" result="PINK"></feFlood>        <feComposite in="PINK" in2="DILATED" operator="in" result="OUTLINE"></feComposite>        <feMerge>            <feMergeNode in="OUTLINE"></feMergeNode>            <feMergeNode in="SourceGraphic"></feMergeNode>        </feMerge>    </filter>    <filter id="hover" height="200%">        <feMorphology in="SourceAlpha" result="DILATED" operator="dilate" radius="2"></feMorphology>                <feFlood flood-color="#ff0000" flood-opacity="0.5" result="PINK"></feFlood>        <feComposite in="PINK" in2="DILATED" operator="in" result="OUTLINE"></feComposite>        <feMerge>            <feMergeNode in="OUTLINE"></feMergeNode>            <feMergeNode in="SourceGraphic"></feMergeNode>        </feMerge>            <feColorMatrix type="matrix" values="0   0   0   0   0                0   1   0   0   0                0   0   0   0   0                0   0   0   1   0 "></feColorMatrix>    </filter></defs></svg>